<svg preserveAspectRatio="none" overflow="visible" style="display: block;" width="61" height="61" viewBox="0 0 61 61" fill="none" xmlns="http://www.w3.org/2000/svg">
<g id="Group_duotone_line">
<circle id="Ellipse 46" cx="30.5" cy="20.3333" r="6.35417" stroke="#222222" stroke-width="2.54167" stroke-linecap="round"/>
<path id="Ellipse 47" d="M34.9935 16.5208C35.4962 15.6501 36.2458 14.9481 37.1475 14.5034C38.0492 14.0587 39.0626 13.8914 40.0593 14.0227C41.0561 14.1539 41.9916 14.5777 42.7475 15.2406C43.5034 15.9035 44.0457 16.7757 44.306 17.7468C44.5662 18.718 44.5326 19.7445 44.2094 20.6965C43.8862 21.6485 43.288 22.4833 42.4904 23.0954C41.6927 23.7074 40.7315 24.0692 39.7283 24.1349C38.7251 24.2007 37.7249 23.9675 36.8542 23.4648" stroke="#2A4157" stroke-opacity="0.24" stroke-width="2.54167"/>
<path id="Ellipse 49" d="M26.0065 16.5208C25.5038 15.6501 24.7542 14.9481 23.8525 14.5034C22.9508 14.0587 21.9374 13.8914 20.9407 14.0227C19.9439 14.1539 19.0084 14.5777 18.2525 15.2406C17.4966 15.9035 16.9543 16.7757 16.694 17.7468C16.4338 18.718 16.4674 19.7445 16.7906 20.6965C17.1138 21.6485 17.712 22.4833 18.5096 23.0954C19.3073 23.7074 20.2685 24.0692 21.2717 24.1349C22.2749 24.2007 23.2751 23.9675 24.1458 23.4648" stroke="#2A4157" stroke-opacity="0.24" stroke-width="2.54167"/>
<path id="Subtract" d="M39.396 29.2292L39.396 27.9583H39.396V29.2292ZM49.0454 39.1833L50.2782 38.8746L50.2782 38.8746L49.0454 39.1833ZM46.7544 41.9372V43.208H46.7546L46.7544 41.9372ZM43.6675 41.9372L42.4467 42.2904L42.7123 43.208H43.6675V41.9372ZM33.2651 31.9899L32.3267 31.1329L30.7497 32.8598L33.0566 33.2435L33.2651 31.9899ZM39.396 29.2292L39.396 30.5C42.008 30.5 43.8426 31.7777 45.1866 33.5678C46.5575 35.3937 47.3626 37.6947 47.8127 39.492L49.0454 39.1833L50.2782 38.8746C49.7924 36.9346 48.8836 34.2586 47.2192 32.0418C45.5279 29.7892 43.0056 27.9584 39.396 27.9583L39.396 29.2292ZM49.0454 39.1833L47.8126 39.4919C47.9493 40.0376 47.5486 40.6662 46.7542 40.6663L46.7544 41.9372L46.7546 43.208C48.967 43.2076 50.8718 41.2458 50.2782 38.8746L49.0454 39.1833ZM46.7544 41.9372V40.6663H43.6675V41.9372V43.208H46.7544V41.9372ZM43.6675 41.9372L44.8882 41.5839C43.6908 37.4458 40.7152 31.9408 33.4737 30.7363L33.2651 31.9899L33.0566 33.2435C38.9017 34.2157 41.3739 38.5828 42.4467 42.2904L43.6675 41.9372ZM33.2651 31.9899L34.2036 32.8469C35.4758 31.4537 37.1367 30.5 39.396 30.5V29.2292V27.9583C36.302 27.9583 33.9927 29.3086 32.3267 31.1329L33.2651 31.9899Z" fill="#2A4157" fill-opacity="0.24"/>
<path id="Subtract_2" d="M21.6039 29.2292V27.9583H21.6038L21.6039 29.2292ZM27.7347 31.9899L27.9433 33.2435L30.2501 32.8598L28.6731 31.1329L27.7347 31.9899ZM17.3324 41.9372V43.208H18.2876L18.5531 42.2904L17.3324 41.9372ZM11.9545 39.1833L10.7217 38.8745L10.7217 38.8747L11.9545 39.1833ZM21.6039 29.2292V30.5C23.8632 30.5 25.5241 31.4538 26.7963 32.8469L27.7347 31.9899L28.6731 31.1329C27.0072 29.3087 24.6979 27.9583 21.6039 27.9583V29.2292ZM27.7347 31.9899L27.5262 30.7363C20.2848 31.9408 17.309 37.4458 16.1116 41.5839L17.3324 41.9372L18.5531 42.2904C19.626 38.5829 22.0983 34.2158 27.9433 33.2435L27.7347 31.9899ZM17.3324 41.9372V40.6663H14.2465V41.9372V43.208H17.3324V41.9372ZM14.2465 41.9372V40.6663C13.4515 40.6663 13.0507 40.0373 13.1873 39.4919L11.9545 39.1833L10.7217 38.8747C10.1279 41.2464 12.0342 43.208 14.2465 43.208V41.9372ZM11.9545 39.1833L13.1872 39.492C13.6373 37.6947 14.4424 35.3938 15.8133 33.5679C17.1574 31.7777 18.9919 30.5001 21.6039 30.5L21.6039 29.2292L21.6038 27.9583C17.9943 27.9585 15.4721 29.7892 13.7808 32.0418C12.1164 34.2586 11.2075 36.9346 10.7217 38.8745L11.9545 39.1833Z" fill="#2A4157" fill-opacity="0.24"/>
<path id="Rectangle 4160" d="M30.5 31.7708C40.8706 31.7708 43.5477 40.1638 44.2387 44.4969C44.4598 45.8831 43.3412 47.0208 41.9375 47.0208H19.0625C17.6588 47.0208 16.5402 45.8831 16.7613 44.4969C17.4523 40.1638 20.1294 31.7708 30.5 31.7708Z" stroke="#222222" stroke-width="2.54167" stroke-linecap="round"/>
</g>
</svg>
